# xmcd CD database file
#
# Track frame offsets:
#	150
#	29863
#	73035
#	98615
#	124063
#	151423
#	183850
#	208160
#	230388
#
# Disc length: 3114 seconds
#
# Revision: 0
# Processed by: cddbd v1.5.2PL0 Copyright (c) Steve Scherf et al.
# Submitted via: CDex 1.51
#
DISCID=790c2809
DTITLE=TWO BONES - Spiral Stairway
DYEAR=1999
DGENRE=Jazz
TTITLE0=Spiral Stairway
TTITLE1=The Healer
TTITLE2=Polka Dots and Moonbeams
TTITLE3=Work Song
TTITLE4=Song For My Father
TTITLE5=Five Spot After Dark
TTITLE6=Bernie's Tune
TTITLE7=Blues For Trombone
TTITLE8=Patisserie
EXTD=YEAR: 1999
EXTT0=
EXTT1=
EXTT2=
EXTT3=
EXTT4=
EXTT5=
EXTT6=
EXTT7=
EXTT8=
PLAYORDER=
